<svg width="395.99999999999994" height="110.22373625416326" viewBox="0 0 230 64.01883671327664" class="looka-1j8o68f">
  <defs id="SvgjsDefs1577"></defs>
  <rect width="100%" height="100%" fill="white"></rect>
  <g id="SvgjsG1578" featurekey="2ou6gm-0"
    transform="matrix(0.5001010781178371,0,0,0.5001010781178371,-2.0004043124713484,0.005894041735088085)"
    fill="#55b3f3">
    <title xmlns="http://www.w3.org/2000/svg">miscellaneous 175_expandline </title>
    <path xmlns="http://www.w3.org/2000/svg" d="M87,37.002H33a2,2,0,0,0,0,4H87a2,2,0,0,0,0-4Z">
    </path>
    <path xmlns="http://www.w3.org/2000/svg"
      d="M89,47.002a2.00009,2.00009,0,0,0-2-2H33a2,2,0,0,0,0,4H87A2.00015,2.00015,0,0,0,89,47.002Z">
    </path>
    <path xmlns="http://www.w3.org/2000/svg"
      d="M45,80A14,14,0,1,0,30.9995,94.002,14.01512,14.01512,0,0,0,45,80ZM30.9995,90.002A10,10,0,1,1,41,80,10.01244,10.01244,0,0,1,30.9995,90.002Z">
    </path>
    <path xmlns="http://www.w3.org/2000/svg"
      d="M123.6948,29.7275a1.99962,1.99962,0,0,0-3.0815-1.3955C89.7827,48.6748,74.6172,77.502,67.3237,98.1025a115.19972,115.19972,0,0,0-5.3022,19.6055,2.02587,2.02587,0,0,0,1.9775,2.294H82.9961a2,2,0,0,0,0-4H68.5825l6.2744-6.7657a2.00015,2.00015,0,0,0,.3662-2.1611l-3.7729-8.6318q.59325-1.6422,1.2578-3.3496c14.1406-4.2081,23.1621-7.4981,23.2529-7.5313a2.00007,2.00007,0,0,0,.0977-3.7178l-3.2979-1.4062c11.815-3.167,18.4292-7.8047,18.7471-8.0303a2.0008,2.0008,0,0,0-.7412-3.5859l-5.5327-1.1836,11.439-5.5283a2.00283,2.00283,0,0,0,.9204-.9112A62.634,62.634,0,0,0,123.6948,29.7275ZM67.4785,111.3096c.5195-2.0518,1.1968-4.4932,2.0645-7.2432l1.4912,3.4102Zm46.8316-50.5-16.065,7.7646a2.00017,2.00017,0,0,0,.4517,3.7569l6.1382,1.3134a72.1402,72.1402,0,0,1-18.8999,6.25,1.99993,1.99993,0,0,0-.4131,3.8047l4.2143,1.7979c-3.4565,1.1728-8.6284,2.873-15.0791,4.834C82.437,72.2236,96.1333,50.291,119.9556,33.6152A60.41572,60.41572,0,0,1,114.3101,60.8096Z">
    </path>
    <circle xmlns="http://www.w3.org/2000/svg" cx="31" cy="102.002" r="2">
    </circle>
    <circle xmlns="http://www.w3.org/2000/svg" cx="31" cy="110.002" r="2">
    </circle>
    <path xmlns="http://www.w3.org/2000/svg"
      d="M44.2549,92.1348A18.07608,18.07608,0,0,1,39.208,96h3.1553C48.7798,96,54,101.7295,54,108.7715V122a2.00233,2.00233,0,0,1-2,2H10a2.00231,2.00231,0,0,1-2-2V108.7715C8,101.7295,13.2202,96,19.6367,96h3.1548a18.06661,18.06661,0,0,1-5.0464-3.8652C10.0137,93.1416,4,100.2109,4,108.7715V122a6.00656,6.00656,0,0,0,6,6H52a6.00655,6.00655,0,0,0,6-6V108.7715C58,100.2109,51.9863,93.1416,44.2549,92.1348Z">
    </path>
    <path xmlns="http://www.w3.org/2000/svg"
      d="M81.7495,61.002H33a1.9917,1.9917,0,0,0-1.73,1.0136,17.888,17.888,0,0,1,9.6587,2.9864H79.0811Q80.36795,63.00385,81.7495,61.002Z">
    </path>
    <path xmlns="http://www.w3.org/2000/svg"
      d="M87.6318,53.1133A1.99239,1.99239,0,0,0,87,53.002H33a2,2,0,0,0,0,4H84.6289Q86.08135,55.05215,87.6318,53.1133Z">
    </path>
    <path xmlns="http://www.w3.org/2000/svg"
      d="M76.5977,69.002H45.2168a17.96588,17.96588,0,0,1,2.3667,4H74.2808Q75.39035,71.0127,76.5977,69.002Z">
    </path>
    <path xmlns="http://www.w3.org/2000/svg"
      d="M70.127,81.002q.9564-1.98195,2-4H48.7295A18.01332,18.01332,0,0,1,49,80c0,.3379-.0322.668-.0508,1.002Z">
    </path>
    <path xmlns="http://www.w3.org/2000/svg"
      d="M20,65.7871V6.0039a2.00291,2.00291,0,0,1,2-2H76V22.1035a5.88253,5.88253,0,0,0,5.8516,5.9004H100V39.6406q1.9395-1.8456,4-3.6445V26.6172a3.00653,3.00653,0,0,0-.5859-2.0274l-24-24A3.62828,3.62828,0,0,0,77.0762.0039H22a6.00655,6.00655,0,0,0-6,6V70.0742A18.14,18.14,0,0,1,20,65.7871ZM80,6.832,97.1714,24.0039H81.8516A1.878,1.878,0,0,1,80,22.1035Z">
    </path>
    <path xmlns="http://www.w3.org/2000/svg"
      d="M101.2783,85.8398A5.97535,5.97535,0,0,1,100,89.3662V122a2.00233,2.00233,0,0,1-2,2H61.7983a9.94329,9.94329,0,0,1-1.8173,4H98a6.00655,6.00655,0,0,0,6-6V82.8223q-1.3908.5829-2.9624,1.1699A6.00112,6.00112,0,0,1,101.2783,85.8398Z">
    </path>
  </g>
  <g id="SvgjsG1579" featurekey="kZnDdN-0"
    transform="matrix(3.282275656363729,0,0,3.282275656363729,79.99999530466701,-10.628006922548543)" fill="#111111">
    <path
      d="M9.44 13.92 l4.48 -7.94 l4.96 0 l0 14.02 l-4.68 0 l0 -5.24 l-2.98 5.24 l-3.58 0 l-4.54 -7.96 l0 -2.94 l5.46 9.34 l1.76 0 l5.44 -9.34 l0 9.34 l1.56 0 l0 -10.9 l-2.5 0 l-5.42 9.36 l-5.34 -9.36 l-2.5 0 l0 10.9 l1.54 0 l0 -2.94 l1.56 2.68 l0 1.82 l-4.66 0 l0 -14.02 l4.96 0 z M30.1 15.32 l0.9 -1.56 l2.72 4.68 l1.8 0 c-0.4 -0.64 -4.2 -7.14 -4.52 -7.78 l-3.92 6.8 l-1.46 2.54 l-5.4 0 c0.3 -0.5 2.32 -4.02 4.26 -7.4 c1.14 -1.98 2.4 -4.2 3.82 -6.62 l1.8 0 l-3.72 6.44 l-3.46 6.02 l1.8 0 c2.46 -4.34 4 -6.9 6.28 -10.9 c0.14 0.24 7.18 12.44 7.22 12.46 l-5.4 0 z M45.699999999999996 20 l-4.68 0 l0 -14.02 l4.68 0 l0 10.9 l-1.56 0 l0 -9.34 l-1.56 0 l0 10.9 l3.12 0 l0 1.56 z">
    </path>
  </g>
</svg>